<?xml version="1.0" standalone="no"?>
<!DOCTYPE svg PUBLIC "-//W3C//DTD SVG 20010904//EN"
 "http://www.w3.org/TR/2001/REC-SVG-20010904/DTD/svg10.dtd">
<svg version="1.0" xmlns="http://www.w3.org/2000/svg"
 width="384.000000pt" height="384.000000pt" viewBox="0 0 384.000000 384.000000"
 preserveAspectRatio="xMidYMid meet">
<metadata>
Created by potrace 1.11, written by Peter Selinger 2001-2013
</metadata>
<g transform="translate(0.000000,384.000000) scale(0.100000,-0.100000)"
fill="#000000" stroke="none">
<path d="M804 3255 l-47 -45 -1 -1157 -1 -1158 39 -12 c22 -7 43 -10 48 -7 4
3 8 1 8 -4 0 -5 6 -9 13 -9 15 -1 136 -32 157 -40 8 -3 22 -7 30 -9 25 -5 104
-26 120 -31 8 -4 22 -7 30 -9 8 -2 74 -19 145 -39 72 -19 143 -38 159 -41 16
-3 33 -7 38 -10 4 -3 16 -7 25 -9 10 -2 63 -15 118 -30 55 -15 107 -29 115
-31 18 -4 198 -53 220 -59 8 -2 35 -9 60 -16 25 -6 51 -13 58 -15 7 -2 14 -4
17 -5 2 0 28 -7 57 -15 29 -8 60 -17 68 -19 8 -2 58 -15 111 -29 53 -14 129
-35 170 -46 41 -12 84 -23 96 -26 12 -2 34 -9 48 -14 14 -5 25 -7 25 -5 0 3
16 -1 35 -9 19 -8 35 -13 35 -11 0 1 21 -3 46 -11 l46 -14 46 47 47 46 0 979
0 979 -50 15 c-55 17 -94 26 -112 27 -15 0 -14 -2 -15 99 0 46 -5 81 -12 86
-6 5 -46 17 -88 27 l-77 19 -3 90 -3 90 -30 8 c-16 5 -64 18 -105 29 -41 12
-82 22 -90 24 -8 1 -22 5 -30 8 -8 3 -60 17 -115 32 -115 30 -106 28 -165 44
-43 12 -52 15 -100 25 -11 3 -70 19 -131 36 -61 18 -122 34 -137 36 -14 3 -29
7 -34 10 -5 3 -20 8 -34 10 -15 3 -76 19 -136 35 -60 17 -115 32 -121 33 -7 1
-18 5 -24 9 -7 5 -13 6 -13 3 0 -2 -15 0 -32 5 -18 6 -76 21 -128 35 -52 14
-102 27 -110 31 -8 3 -22 7 -30 8 -20 3 -99 24 -130 35 -69 24 -77 22 -126
-25z"/>
</g>
</svg>
